<?xml version="1.0" encoding="UTF-8"?>
<svg version="1.1" xmlns="http://www.w3.org/2000/svg" width="512" height="512">
<path d="M0 0 C8.48552065 6.16036884 15.85428305 13.56648927 23.23266602 20.97387695 C24.41288358 22.15137736 25.59352462 23.32845344 26.77455139 24.50514221 C29.94800843 27.66956612 33.11520915 30.84018045 36.28096128 34.01231027 C39.60551565 37.34196368 42.93498716 40.6666947 46.26365662 43.99223328 C51.84253609 49.56748796 57.41721549 55.14691612 62.98950195 60.72875977 C69.43028864 67.18046556 75.87829889 73.6248847 82.33003479 80.06563979 C87.8821216 85.60865579 93.43030824 91.15555295 98.97524208 96.70572442 C102.28184549 100.01544385 105.58978091 103.32380157 108.90124702 106.62865639 C112.00764295 109.72928122 115.10911735 112.83474583 118.20683861 115.94403648 C119.34434117 117.08418528 120.48355234 118.22263234 121.62458038 119.35925293 C123.18033795 120.90955323 124.72981651 122.46586971 126.27784729 124.02388 C127.14663796 124.89342473 128.01542864 125.76296946 128.9105463 126.65886402 C130.79924345 128.77506159 132.09569307 130.32486385 133 133 C132.71125 134.2375 132.4225 135.475 132.125 136.75 C131.66066623 138.83732714 131.66066623 138.83732714 132 141 C134.30630813 144.10322467 137.0217587 146.54963079 140 149 C144.50308987 145.22963646 148.79908202 141.34186133 152.93084717 137.16921997 C153.48443004 136.61437483 154.03801291 136.05952968 154.60837102 135.48787105 C156.442813 133.64809793 158.2736313 131.80476211 160.10449219 129.96142578 C161.42732137 128.6333973 162.75039725 127.30561451 164.07369995 125.97805786 C166.91398377 123.12786579 169.75279457 120.27621755 172.59053802 117.42349625 C177.08514748 112.90572843 181.58471647 108.39292232 186.08526611 103.881073 C198.87954221 91.05344309 211.66966838 78.22169623 224.44921875 65.37939453 C231.51428663 58.27971859 238.5847697 51.18548217 245.661237 44.09716785 C250.12916699 39.62117515 254.5904692 35.13871494 259.04691267 30.65128732 C261.83085848 27.8512418 264.62117207 25.05760899 267.41327286 22.26569748 C268.69813656 20.97842882 269.98045362 19.68861192 271.25989151 18.39595032 C283.13467259 6.40366966 293.6247007 -4.13029443 311.375 -4.4375 C330.70190792 -4.25075645 340.98235705 8.81870241 353.83203125 21.55859375 C354.4234107 22.14464952 355.01479015 22.7307053 355.62409019 23.33452034 C358.74530088 26.42924789 361.86299266 29.52747585 364.97827148 32.62817383 C367.53648741 35.17300279 370.10180085 37.71033898 372.67358398 40.24145508 C375.80864478 43.32698931 378.93105405 46.42481479 382.04498863 49.53166389 C383.22277216 50.70278242 384.40476786 51.86968219 385.59122658 53.03201103 C394.77471765 62.03904968 401.94524195 70.44129427 402.29321289 83.83740234 C402.43811897 100.55479494 395.88803467 110.014761 384.46563137 121.7522434 C381.55477838 124.70339106 378.61739869 127.62740411 375.67749023 130.54956055 C374.35555228 131.8709331 373.03405705 133.19274868 371.71296692 134.51496887 C368.15609199 138.07241328 364.59312251 141.62369452 361.02895617 145.1738317 C357.29377463 148.89643787 353.56432592 152.62477876 349.83424377 156.35249329 C342.78369436 163.39684783 335.72806622 170.4360923 328.6705609 177.47347718 C320.63025274 185.49136406 312.59568105 193.51498898 304.56156623 201.53908098 C288.04738162 218.03240877 271.52607082 234.51858263 255 251 C256.52028847 254.19048656 258.09117979 256.32708393 260.62011719 258.81542969 C261.36138855 259.5500946 262.10265991 260.28475952 262.86639404 261.04168701 C263.66845276 261.82714905 264.47051147 262.61261108 265.296875 263.421875 C266.12326477 264.24069153 266.94965454 265.05950806 267.80108643 265.90313721 C271.33388754 269.40329736 274.87826555 272.89164744 278.421875 276.38085938 C281.00938686 278.93200827 283.59073591 281.48928108 286.171875 284.046875 C287.36281769 285.21292267 287.36281769 285.21292267 288.57781982 286.40252686 C294.36366272 292.13766691 300.15098277 298.11779099 303.3125 305.75 C303.61800781 306.46671875 303.92351562 307.1834375 304.23828125 307.921875 C307.68951547 317.33754991 306.89552088 327.90693063 303.390625 337.1875 C299.34259504 345.37452688 292.54522291 351.76811223 286 358 C291.12707359 364.21056009 296.7406399 369.85569849 302.45581055 375.52172852 C303.5062422 376.56695815 304.55642666 377.61243627 305.60638428 378.65814209 C307.85580206 380.8976711 310.10667916 383.13571916 312.3586483 385.37268257 C315.92151443 388.91236501 319.47939621 392.45702907 323.03633118 396.00267029 C333.14726709 406.08026807 343.26241444 416.15361209 353.38793945 426.21655273 C358.98926765 431.78334328 364.58521035 437.3554887 370.17523032 442.93363518 C373.70762757 446.45794662 377.24648774 449.9755937 380.79026258 453.48846257 C382.99348372 455.67565537 385.19035752 457.86913799 387.38548279 460.06445312 C388.40233704 461.07889004 389.42176215 462.09075767 390.443964 463.09980583 C391.84208449 464.480684 393.23002751 465.87184386 394.61747742 467.26344299 C395.39597392 468.0378753 396.17447042 468.81230761 396.97655773 469.61020756 C402.25261307 475.84150823 402.58460675 481.45232336 402.4140625 489.359375 C401.66999322 495.90156904 398.74449944 499.61842034 393.9375 503.875 C388.99342409 507.45156555 385.95187018 508.33078766 379.75 508.4375 C378.48671875 508.47746094 377.2234375 508.51742187 375.921875 508.55859375 C366.1010212 507.1598068 359.57331439 498.98697741 352.90234375 492.24291992 C351.80822665 491.14795531 350.71344597 490.05365343 349.61805725 488.95996094 C346.66352475 486.00628498 343.71829811 483.04348792 340.77471924 480.07890105 C337.69050333 476.97586131 334.59772206 473.88138215 331.50585938 470.78596497 C325.65998961 464.93079147 319.82180586 459.0680166 313.98637962 453.20243675 C307.33931447 446.52177547 300.68367268 439.84968669 294.02731514 433.17828596 C280.34201325 419.46167292 266.66745906 405.73439084 253 392 C251.88222448 392.95367082 250.76507705 393.90807784 249.64819336 394.86279297 C249.02601425 395.39419891 248.40383514 395.92560486 247.76280212 396.47311401 C245.64690795 398.30583768 243.6082536 400.21459871 241.5625 402.125 C237.63820024 405.61622763 233.87619387 408.06983993 229 410 C227.96875 410.4125 226.9375 410.825 225.875 411.25 C214.56037452 413.43992751 204.48250813 412.31800353 194.48193359 406.546875 C189.32931144 403.06504486 185.14245624 398.38699846 180.7890625 393.984375 C179.81158636 393.00316325 178.83366366 392.02239617 177.85531616 391.04205322 C175.29617405 388.47531779 172.74309853 385.90263123 170.19128418 383.32861328 C167.58041315 380.69719062 164.96378785 378.07150336 162.34765625 375.4453125 C157.22615559 370.30243793 152.11105699 365.15325601 147 360 C141.69193654 364.42533246 136.78670258 369.10728918 131.94140625 374.03125 C130.40573635 375.57956337 128.86992472 377.12773617 127.33398438 378.67578125 C124.94487204 381.08968557 122.55740194 383.50516941 120.17260742 385.92333984 C117.8500305 388.27630384 115.52112041 390.62285542 113.19140625 392.96875 C112.13790733 394.04243835 112.13790733 394.04243835 111.06312561 395.13781738 C105.50610805 400.72254714 99.6216608 406.25891058 92.25 409.3125 C91.53328125 409.61800781 90.8165625 409.92351562 90.078125 410.23828125 C80.66245009 413.68951547 70.09306937 412.89552088 60.8125 409.390625 C52.62547312 405.34259504 46.23188777 398.54522291 40 392 C33.78943991 397.12707359 28.14430151 402.7406399 22.47827148 408.45581055 C21.43304185 409.5062422 20.38756373 410.55642666 19.34185791 411.60638428 C17.1023289 413.85580206 14.86428084 416.10667916 12.62731743 418.3586483 C9.08763499 421.92151443 5.54297093 425.47939621 1.99732971 429.03633118 C-8.08026807 439.14726709 -18.15361209 449.26241444 -28.21655273 459.38793945 C-33.78334328 464.98926765 -39.3554887 470.58521035 -44.93363518 476.17523032 C-48.45794662 479.70762757 -51.9755937 483.24648774 -55.48846257 486.79026258 C-57.67565537 488.99348372 -59.86913799 491.19035752 -62.06445312 493.38548279 C-63.07889004 494.40233704 -64.09075767 495.42176215 -65.09980583 496.443964 C-66.480684 497.84208449 -67.87184386 499.23002751 -69.26344299 500.61747742 C-70.0378753 501.39597392 -70.81230761 502.17447042 -71.61020756 502.97655773 C-77.84150823 508.25261307 -83.45232336 508.58460675 -91.359375 508.4140625 C-97.90156904 507.66999322 -101.61842034 504.74449944 -105.875 499.9375 C-109.45156555 494.99342409 -110.33078766 491.95187018 -110.4375 485.75 C-110.47746094 484.48671875 -110.51742187 483.2234375 -110.55859375 481.921875 C-109.1598068 472.1010212 -100.98697741 465.57331439 -94.24291992 458.90234375 C-93.14795531 457.80822665 -92.05365343 456.71344597 -90.95996094 455.61805725 C-88.00628498 452.66352475 -85.04348792 449.71829811 -82.07890105 446.77471924 C-78.97586131 443.69050333 -75.88138215 440.59772206 -72.78596497 437.50585938 C-66.93079147 431.65998961 -61.0680166 425.82180586 -55.20243675 419.98637962 C-48.52177547 413.33931447 -41.84968669 406.68367268 -35.17828596 400.02731514 C-21.46167292 386.34201325 -7.73439084 372.66745906 6 359 C5.04632918 357.88222448 4.09192216 356.76507705 3.13720703 355.64819336 C2.60580109 355.02601425 2.07439514 354.40383514 1.52688599 353.76280212 C-0.30583768 351.64690795 -2.21459871 349.6082536 -4.125 347.5625 C-7.61622763 343.63820024 -10.06983993 339.87619387 -12 335 C-12.4125 333.96875 -12.825 332.9375 -13.25 331.875 C-15.43992751 320.56037452 -14.31800353 310.48250813 -8.546875 300.48193359 C-5.06504486 295.32931144 -0.38699846 291.14245624 4.015625 286.7890625 C4.99683675 285.81158636 5.97760383 284.83366366 6.95794678 283.85531616 C9.52468221 281.29617405 12.09736877 278.74309853 14.67138672 276.19128418 C17.30280938 273.58041315 19.92849664 270.96378785 22.5546875 268.34765625 C27.69756207 263.22615559 32.84674399 258.11105699 38 253 C32.96118734 246.85224471 27.39904645 241.28138186 21.76419258 235.68902779 C20.03289827 233.97064822 18.30487944 232.24903223 16.57762146 230.52659607 C12.28856737 226.25082038 7.99406982 221.98052569 3.69970703 217.71008301 C0.06286441 214.09308119 -3.57184763 210.4739629 -7.20384407 206.85209465 C-8.89387521 205.16847413 -10.58692422 203.48793105 -12.28013611 201.80751038 C-17.11905163 196.99141852 -21.84366448 192.14023415 -26.28208923 186.94721985 C-29.82128445 182.93560801 -33.65549429 179.20259023 -37.44140625 175.42578125 C-38.770261 174.09549141 -38.770261 174.09549141 -40.1259613 172.73832703 C-42.4610841 170.40235542 -44.79860645 168.06881744 -47.13696289 165.73608398 C-49.03800991 163.83764159 -50.9353355 161.93550144 -52.83268833 160.03336811 C-55.11648868 157.7450649 -57.4041177 155.46059699 -59.69140625 153.17578125 C-60.53530411 152.32985916 -61.37920197 151.48393707 -62.24867249 150.61238098 C-65.59352132 147.2807478 -68.89589355 144.00629977 -72.58178711 141.05151367 C-73.37979736 140.37451416 -74.17780762 139.69751465 -75 139 C-75 138.34 -75 137.68 -75 137 C-75.99 136.67 -76.98 136.34 -78 136 C-78 135.34 -78 134.68 -78 134 C-78.59425781 133.74347656 -79.18851563 133.48695313 -79.80078125 133.22265625 C-82.21062253 131.88290435 -83.44871988 130.5626757 -85.1875 128.4375 C-90.00435884 122.74014008 -95.29396062 117.52153669 -100.75 112.4375 C-108.99418519 103.50629938 -110.60442721 93.98880904 -110.30078125 82.23046875 C-109.4034992 65.6104419 -95.41652063 55.23765846 -84.44140625 44.16796875 C-83.85535048 43.5765893 -83.2692947 42.98520985 -82.66547966 42.37590981 C-79.57075211 39.25469912 -76.47252415 36.13700734 -73.37182617 33.02172852 C-70.82699721 30.46351259 -68.28966102 27.89819915 -65.75854492 25.32641602 C-62.67301069 22.19135522 -59.57518521 19.06894595 -56.46833611 15.95501137 C-55.29721758 14.77722784 -54.13031781 13.59523214 -52.96798897 12.40877342 C-38.67350838 -2.16574325 -19.64609363 -10.67227228 0 0 Z " fill="#030201" transform="translate(110,4)"/>
<path d="M0 0 C0.86496094 -0.01933594 1.72992188 -0.03867188 2.62109375 -0.05859375 C9.70487027 1.13614678 14.91626275 5.19676735 19.83911133 10.1965332 C20.41092133 10.76133392 20.98273132 11.32613464 21.5718689 11.90805054 C23.43954004 13.75826666 25.29236997 15.62254894 27.14453125 17.48828125 C28.44812205 18.78917394 29.75230583 20.08947265 31.05705261 21.38920593 C33.78083021 24.10710569 36.49729093 26.83205861 39.20874023 29.56225586 C42.67636933 33.05269563 46.16168019 36.52483709 49.65266895 39.99189472 C52.34600961 42.67075074 55.02971307 45.35909882 57.71063805 48.05037498 C58.99186751 49.33426316 60.27604845 50.61521324 61.56327248 51.8930912 C63.36301828 53.6826254 65.14935908 55.48457849 66.93286133 57.2902832 C67.46120071 57.81052567 67.9895401 58.33076813 68.53388977 58.86677551 C73.10008455 63.53829483 75.98876418 68.63842198 76 75.3125 C76.02900391 76.45332031 76.02900391 76.45332031 76.05859375 77.6171875 C74.21940076 88.07307206 67.2522773 94.45965657 60.02536011 101.61628723 C58.8194106 102.82871933 57.61455071 104.04223603 56.4106847 105.25673693 C53.10955096 108.58063871 49.79304807 111.88881922 46.47373199 115.1945504 C42.89268594 118.76633261 39.32605951 122.35246503 35.75752258 125.93673706 C28.76828674 132.95205129 21.76553753 139.95372375 14.75773506 146.9504864 C9.06192031 152.63774038 3.37082202 158.32967368 -2.31695175 164.0249691 C-3.12670341 164.83577564 -3.93645506 165.64658219 -4.77074464 166.48195862 C-6.41577009 168.12915501 -8.06078761 169.77635931 -9.7057973 171.42357143 C-25.12954891 186.86675022 -40.56897451 202.29418302 -56.01354693 217.71653511 C-69.26214216 230.94687985 -82.49609071 244.19173183 -95.71972656 257.44702148 C-111.07909129 272.84315033 -126.44828469 288.22936342 -141.83264053 303.60052317 C-143.47349435 305.2400359 -145.11433212 306.87956469 -146.75515366 308.51910973 C-147.56245089 309.3257763 -148.36974813 310.13244287 -149.20150892 310.96355388 C-154.88674458 316.64576276 -160.56480507 322.33508109 -166.24005508 328.02726173 C-173.1578986 334.96543161 -180.08624373 341.89290309 -187.02828784 348.80686209 C-190.56922247 352.334026 -194.10519452 355.86580895 -197.62828255 359.41080666 C-200.85530141 362.65762795 -204.09591505 365.89020862 -207.34779476 369.11212453 C-208.51995894 370.27829453 -209.68712127 371.44951907 -210.8486196 372.62631259 C-217.82444793 379.68724528 -224.27825498 385.73215566 -234.609375 386.75 C-249.17475985 384.98449881 -259.05592854 371.97659588 -269.046875 362.06640625 C-269.52668068 361.5906761 -270.00648636 361.11494595 -270.5008316 360.62479973 C-273.0329022 358.11335276 -275.56185336 355.59881175 -278.08837891 353.08178711 C-280.67071497 350.51056116 -283.26454373 347.95125404 -285.86101913 345.39431858 C-287.88396806 343.39768858 -289.89781424 341.3920563 -291.90943146 339.38401604 C-293.31756867 337.98300113 -294.73527978 336.59162938 -296.15325928 335.20057678 C-302.34896822 328.98399029 -308.46815987 322.49787239 -310.1640625 313.64453125 C-310.13054687 312.52433594 -310.09703125 311.40414063 -310.0625 310.25 C-310.05476563 309.12207031 -310.04703125 307.99414062 -310.0390625 306.83203125 C-308.86550988 300.20984146 -305.03701266 295.66210246 -300.38897228 291.00865555 C-299.64315475 290.25584813 -299.64315475 290.25584813 -298.88227019 289.48783249 C-297.2219165 287.81557115 -295.55114598 286.15413753 -293.88017273 284.49249268 C-292.67250899 283.2806542 -291.46549801 282.06816494 -290.25908309 280.85508323 C-286.94770917 277.5292548 -283.62704773 274.21283807 -280.30475485 270.8979218 C-276.72123396 267.31913013 -273.14634372 263.73173475 -269.5703125 260.14546204 C-262.56581957 253.12377189 -255.55316491 246.11028825 -248.53744992 239.09981236 C-242.83623015 233.40263326 -237.13775798 227.70271979 -231.44123268 222.00084686 C-230.63061486 221.18948062 -229.81999703 220.37811437 -228.98481504 219.54216127 C-227.33809686 217.89391163 -225.69138212 216.24565855 -224.0446708 214.59740207 C-208.60192893 199.14093218 -193.14961415 183.69406053 -177.69427351 168.25018999 C-163.55072705 154.11657954 -149.41865639 139.9715587 -135.29204299 125.82102528 C-120.78901824 111.29362812 -106.27863814 96.77361679 -91.76009399 82.261729 C-83.60818143 74.11331237 -75.45917228 65.96204266 -67.31775475 57.80313873 C-60.38825236 50.85893778 -53.45178824 43.92178433 -46.50620802 36.99366292 C-42.96210473 33.45809061 -39.42130508 29.91936805 -35.88910103 26.37190437 C-32.65612328 23.12513278 -29.41407047 19.88772183 -26.16450856 16.65755114 C-24.99009287 15.48691199 -23.81904706 14.31288038 -22.65173086 13.13516179 C-21.06473171 11.53502918 -19.46590361 9.94771646 -17.86355114 8.36297989 C-16.53569396 7.03528371 -16.53569396 7.03528371 -15.18101138 5.68076539 C-10.65020529 1.97609678 -5.93318553 0.00881603 0 0 Z " fill="#FEE7C1" transform="translate(421.4375,14.5625)"/>
<path d="M0 0 C0.86496094 -0.01933594 1.72992188 -0.03867188 2.62109375 -0.05859375 C12.72607573 1.64569936 19.05290446 9.39137645 25.89770508 16.33447266 C27.12466037 17.56419632 28.35250857 18.79302963 29.58117676 20.02104187 C32.90170494 23.34468325 36.20984595 26.68041092 39.51599336 30.01834917 C42.98108768 33.5122496 46.45798654 36.99436115 49.9337616 40.47763062 C56.51097282 47.07241241 63.07834352 53.67689906 69.64185113 60.28531682 C79.28429615 69.99303043 88.9395114 79.6880304 98.59712505 89.38065147 C99.30509489 90.09119073 100.01306473 90.80172998 100.74248821 91.53380072 C102.15378511 92.95019498 103.56511465 94.36655671 104.9764778 95.78288496 C109.11197982 99.93365361 113.24390721 104.08793997 117.37280905 108.24527383 C119.93690024 110.82635598 122.50292604 113.4055089 125.06934357 115.98427773 C126.26067458 117.18228488 127.45112012 118.38117331 128.64062309 119.58099556 C130.26149412 121.21576106 131.88540739 122.84744399 133.51008606 124.47842407 C134.41872312 125.3931782 135.32736017 126.30793232 136.26353168 127.25040627 C138.55784831 129.55833856 138.55784831 129.55833856 141.5625 131.4375 C143.78874593 131.1183377 143.78874593 131.1183377 146.1875 130.5 C149.91745747 129.98438823 151.11937578 130.11558329 154.21875 132.3671875 C156.45916254 134.64304961 158.55737839 136.95289279 160.5625 139.4375 C156.01811817 144.88673017 151.19784863 149.93933857 146.17041016 154.94311523 C145.35023407 155.76343735 144.53005798 156.58375946 143.68502808 157.42893982 C140.99290493 160.1203703 138.29726475 162.80824847 135.6015625 165.49609375 C133.72661824 167.36917153 131.85187215 169.24244556 129.97738647 171.11598206 C125.55968043 175.53059132 121.13943357 179.94264725 116.71824777 184.35377127 C111.68114834 189.37965801 106.64691902 194.40841548 101.61291814 199.43740547 C91.2659493 209.77394737 80.91534552 220.10684414 70.5625 230.4375 C66.05485404 226.65791393 61.73885265 222.76366546 57.57781982 218.60671997 C56.73897873 217.77445226 56.73897873 217.77445226 55.88319135 216.92537105 C54.03014019 215.08555967 52.18057428 213.24228681 50.33105469 211.39892578 C48.99517878 210.07096193 47.65912461 208.74317737 46.32290649 207.41555786 C41.95633028 203.075052 37.59507095 198.72922477 33.234375 194.3828125 C31.72906406 192.8828655 30.22374634 191.38292529 28.71842194 189.88299179 C22.45889585 183.64506333 16.20079994 177.40570591 9.94642258 171.16261482 C0.99758759 162.23003932 -7.95964063 153.30607352 -16.92874455 144.39384854 C-23.24507076 138.11621435 -29.55179117 131.82903233 -35.85144496 125.53466785 C-39.61069499 121.77906925 -43.37400465 118.027762 -47.14762115 114.28659439 C-50.69461183 110.76967444 -54.22954346 107.24106761 -57.75563431 103.70319748 C-59.04972236 102.40888869 -60.34808204 101.11883427 -61.65103531 99.83345032 C-63.43277342 98.07443485 -65.19830595 96.30056036 -66.96075439 94.52224731 C-67.7342378 93.76958704 -67.7342378 93.76958704 -68.52334714 93.0017215 C-73.26322873 88.15643403 -75.86342761 82.28835643 -75.875 75.4375 C-75.89433594 74.674375 -75.91367188 73.91125 -75.93359375 73.125 C-74.65096209 66.17657024 -70.59659968 61.00336014 -65.6784668 56.16088867 C-65.11366608 55.58907867 -64.54886536 55.01726868 -63.96694946 54.4281311 C-62.11673334 52.56045996 -60.25245106 50.70763003 -58.38671875 48.85546875 C-57.08582606 47.55187795 -55.78552735 46.24769417 -54.48579407 44.94294739 C-51.76789431 42.21916979 -49.04294139 39.50270907 -46.31274414 36.79125977 C-42.82230437 33.32363067 -39.35016291 29.83831981 -35.88310528 26.34733105 C-33.20424926 23.65399039 -30.51590118 20.97028693 -27.82462502 18.28936195 C-26.54073684 17.00813249 -25.25978676 15.72395155 -23.9819088 14.43672752 C-22.1923746 12.63698172 -20.39042151 10.85064092 -18.5847168 9.06713867 C-18.06447433 8.53879929 -17.54423187 8.0104599 -17.00822449 7.46611023 C-12.10350551 2.67197353 -6.9649019 0.01034904 0 0 Z " fill="#FED084" transform="translate(90.4375,14.5625)"/>
<path d="M0 0 C13.29060895 10.80101362 13.29060895 10.80101362 14.25390625 19.21875 C14.6248117 26.97187037 12.7271344 32.71763287 7.7177217 38.74694026 C4.7277785 41.98483499 1.59382568 45.07827237 -1.53713989 48.17878723 C-2.7430894 49.39121933 -3.94794929 50.60473603 -5.1518153 51.81923693 C-8.45294904 55.14313871 -11.76945193 58.45131922 -15.08876801 61.7570504 C-18.66981406 65.32883261 -22.23644049 68.91496503 -25.80497742 72.49923706 C-32.79421326 79.51455129 -39.79696247 86.51622375 -46.80476494 93.5129864 C-52.50057969 99.20024038 -58.19167798 104.89217368 -63.87945175 110.5874691 C-64.68920341 111.39827564 -65.49895506 112.20908219 -66.33324464 113.04445862 C-67.97827009 114.69165501 -69.62328761 116.33885931 -71.2682973 117.98607143 C-86.69204891 133.42925022 -102.13147451 148.85668302 -117.57604693 164.27903511 C-130.82464216 177.50937985 -144.05859071 190.75423183 -157.28222656 204.00952148 C-172.64159129 219.40565033 -188.01078469 234.79186342 -203.39514053 250.16302317 C-205.03599435 251.8025359 -206.67683212 253.44206469 -208.31765366 255.08160973 C-209.12495089 255.8882763 -209.93224813 256.69494287 -210.76400892 257.52605388 C-216.44924458 263.20826276 -222.12730507 268.89758109 -227.80255508 274.58976173 C-234.7203986 281.52793161 -241.64874373 288.45540309 -248.59078784 295.36936209 C-252.13172247 298.896526 -255.66769452 302.42830895 -259.19078255 305.97330666 C-262.41780141 309.22012795 -265.65841505 312.45270862 -268.91029476 315.67462453 C-270.08245894 316.84079453 -271.24962127 318.01201907 -272.4111196 319.18881259 C-279.38694793 326.24974528 -285.84075498 332.29465566 -296.171875 333.3125 C-306.76487827 332.0284996 -312.37381862 326.0534642 -320 319 C-318 318 -318 318 -314.9375 318.1875 C-300.85605349 317.51695493 -290.46121658 304.75609597 -281.17634583 295.43704224 C-280.00183019 294.26555154 -278.82688192 293.09449446 -277.65154189 291.92383087 C-274.44091866 288.72345183 -271.23651403 285.51691035 -268.03315461 282.30926299 C-264.57048134 278.84411606 -261.10206367 275.38472683 -257.63441467 271.92456055 C-250.84941848 265.15229459 -244.06989101 258.37457974 -237.29242901 251.59477462 C-231.78323004 246.08379082 -226.27226424 240.57457987 -220.76004601 235.06661606 C-219.97479516 234.2819604 -219.18954431 233.49730475 -218.38049799 232.68887164 C-216.78515936 231.09474479 -215.18981955 229.50061911 -213.59447857 227.9064946 C-198.64438381 212.96726847 -183.70080534 198.02153735 -168.75919499 183.07382618 C-155.09387862 169.40333863 -141.42036246 155.74108647 -127.74296132 142.08269073 C-113.69088298 128.04998855 -99.64437175 114.0117361 -85.60385722 99.96746337 C-77.72428565 92.08597977 -69.84252918 84.20671138 -61.95493507 76.33325577 C-55.24191736 69.63214979 -48.5341755 62.92581696 -41.83316878 56.21269931 C-38.41545023 52.78909132 -34.99538009 49.36792458 -31.56872559 45.95325851 C-28.42950474 42.82489303 -25.29734187 39.68963413 -22.17056306 36.54883431 C-21.04077541 35.41639886 -19.90847244 34.28646583 -18.77336035 33.15936746 C-8.56458841 23.01765852 -1.51025842 14.59916472 0 0 Z " fill="#FED084" transform="translate(483,68)"/>
<path d="M0 0 C3.88544899 3.28511736 7.70872398 6.58456394 11.32714844 10.16601562 C12.48304474 11.30750061 12.48304474 11.30750061 13.66229248 12.4720459 C14.87359833 13.67697693 14.87359833 13.67697693 16.109375 14.90625 C16.9580011 15.74917603 17.8066272 16.59210205 18.68096924 17.46057129 C20.46399686 19.23419836 22.24561028 21.00924815 24.02587891 22.78564453 C26.74844586 25.49845143 29.48149456 28.20040672 32.21484375 30.90234375 C33.95117851 32.63215259 35.68687769 34.36259969 37.421875 36.09375 C38.23750916 36.89703735 39.05314331 37.70032471 39.89349365 38.5279541 C45.80571766 44.46358632 49.4153589 49.07848431 49.5625 57.75 C49.62630859 59.44382812 49.62630859 59.44382812 49.69140625 61.171875 C47.72991361 72.03211672 38.91403438 79.68071957 31.390625 87.140625 C30.25672135 88.27723085 29.12341139 89.41442925 27.99066162 90.55218506 C25.62683614 92.9218713 23.25602357 95.28426627 20.87988281 97.64160156 C17.85612856 100.64256881 14.85069515 103.66114377 11.85031509 106.68545914 C9.51707931 109.03324586 7.17427998 111.37130387 4.82860565 113.70665741 C3.71746178 114.81515961 2.6092071 115.9265667 1.50409698 117.04108429 C-13.17697464 131.81965702 -13.17697464 131.81965702 -22.7578125 133.76171875 C-23.86898437 133.73722656 -24.98015625 133.71273437 -26.125 133.6875 C-27.24132812 133.69136719 -28.35765625 133.69523438 -29.5078125 133.69921875 C-38.67471676 131.86378714 -44.8763388 124.52529563 -51.1875 118.10546875 C-52.13947509 117.1478861 -53.09212384 116.19097275 -54.04541016 115.23469543 C-56.53117016 112.73757794 -59.00778053 110.23158057 -61.48248291 107.72351074 C-64.01792839 105.15716634 -66.56207726 102.59948097 -69.10546875 100.04101562 C-74.07877954 95.03570163 -79.04245922 90.02093804 -84 85 C-79.61618886 79.75528394 -75.00291191 74.86477977 -70.15869141 70.04516602 C-69.01620941 68.90246498 -69.01620941 68.90246498 -67.85064697 67.73667908 C-65.35331728 65.24004143 -62.85247313 62.74695638 -60.3515625 60.25390625 C-58.61114002 58.51535046 -56.87093939 56.77657256 -55.13095093 55.0375824 C-50.56623679 50.47667363 -45.99852673 45.91877686 -41.43017578 41.36151123 C-36.76282722 36.70441946 -32.09833276 32.04447097 -27.43359375 27.38476562 C-18.29184591 18.25372017 -9.14702563 9.12575827 0 0 Z " fill="#FDCF83" transform="translate(351,267)"/>
<path d="M0 0 C9.47463573 6.94911196 16.95161439 16.64389635 19.421875 28.35546875 C20.71840454 42.36291128 19.58515159 54.65161646 11.046875 66.29296875 C3.79710687 74.80019131 -6.14121373 82.4819878 -17.66186523 83.54833984 C-32.20672027 84.0750382 -44.10662342 82.99872375 -55.65625 73.15625 C-63.78698313 65.53781916 -70.43729869 55.48683287 -70.8515625 44.046875 C-71.2686331 29.19654597 -69.07220246 17.55522171 -58.578125 6.35546875 C-43.56002846 -9.51550735 -18.09084176 -11.53976422 0 0 Z " fill="#000000" transform="translate(281.578125,6.64453125)"/>
<path d="M0 0 C0.061875 1.27875 0.12375 2.5575 0.1875 3.875 C2.20305317 20.65382577 18.83264281 32.98174018 30.18237305 44.29589844 C31.46498264 45.57822516 32.74737049 46.86077369 34.02955627 48.14352417 C37.47284192 51.58709389 40.91917724 55.0275961 44.36611533 58.46750927 C47.98203846 62.07713338 51.59508407 65.68963553 55.20845032 69.30181885 C62.03427326 76.12454763 68.86263871 82.94472578 75.6919468 89.76396585 C83.47397537 97.53477344 91.25312647 105.30845891 99.03205049 113.0823741 C115.01819245 129.05809509 131.00790131 145.030242 147 161 C146.0542569 162.11228972 145.107228 163.22348623 144.15966797 164.33422852 C143.63243134 164.95314468 143.1051947 165.57206085 142.5619812 166.20973206 C140.51461082 168.5563298 138.34333058 170.75278049 136.125 172.9375 C135.34382812 173.70964844 134.56265625 174.48179687 133.7578125 175.27734375 C132.88769531 176.13005859 132.88769531 176.13005859 132 177 C127.49235404 173.22041393 123.17635265 169.32616546 119.01531982 165.16921997 C118.17647873 164.33695226 118.17647873 164.33695226 117.32069135 163.48787105 C115.46764019 161.64805967 113.61807428 159.80478681 111.76855469 157.96142578 C110.43267878 156.63346193 109.09662461 155.30567737 107.76040649 153.97805786 C103.39383028 149.637552 99.03257095 145.29172477 94.671875 140.9453125 C93.16656406 139.4453655 91.66124634 137.94542529 90.15592194 136.44549179 C83.89639585 130.20756333 77.63829994 123.96820591 71.38392258 117.72511482 C62.43508759 108.79253932 53.47785937 99.86857352 44.50875545 90.95634854 C38.19242924 84.67871435 31.88570883 78.39153233 25.58605504 72.09716785 C21.82680501 68.34156925 18.06349535 64.590262 14.28987885 60.84909439 C10.74288817 57.33217444 7.20795654 53.80356761 3.68186569 50.26569748 C2.38777764 48.97138869 1.08941796 47.68133427 -0.21353531 46.39595032 C-1.99527342 44.63693485 -3.76080595 42.86306036 -5.52325439 41.08474731 C-6.03891 40.5829738 -6.55456561 40.08120028 -7.08584714 39.5642215 C-11.82572873 34.71893403 -14.42592761 28.85085643 -14.4375 22 C-14.07499883 12.86775899 -9.2824349 7.84648357 -2.92578125 1.6875 C-1 0 -1 0 0 0 Z " fill="#FEB947" transform="translate(29,68)"/>
<path d="M0 0 C1.11228972 0.9457431 2.22348623 1.892772 3.33422852 2.84033203 C3.95314468 3.36756866 4.57206085 3.8948053 5.20973206 4.4380188 C7.5563298 6.48538918 9.75278049 8.65666942 11.9375 10.875 C12.70964844 11.65617187 13.48179687 12.43734375 14.27734375 13.2421875 C14.84582031 13.82226562 15.41429687 14.40234375 16 15 C12.10401815 19.67275578 8.04917247 24.07541806 3.70336914 28.33081055 C2.80719376 29.21515778 2.80719376 29.21515778 1.89291382 30.11737061 C0.60900024 31.38421857 -0.67596588 32.65000056 -1.9618969 33.91480064 C-4.69419953 36.60477568 -7.4169769 39.30430745 -10.14039707 42.00327015 C-15.19998161 47.01720202 -20.26344232 52.02706596 -25.34301758 57.02075195 C-28.88789544 60.50641366 -32.42058951 64.00401578 -35.94540596 67.50995827 C-37.28979977 68.84258382 -38.63872417 70.17065452 -39.99217033 71.49408531 C-41.87609013 73.33722095 -43.74410998 75.19514455 -45.60913086 77.05737305 C-46.45597694 77.87489799 -46.45597694 77.87489799 -47.31993103 78.7089386 C-49.0314306 80.37980794 -49.0314306 80.37980794 -51 83 C-50.94813016 87.21588646 -47.81208928 89.62147346 -44.96875 92.4296875 C-44.45880493 92.94250275 -43.94885986 93.45531799 -43.42346191 93.9836731 C-42.34100842 95.06816655 -41.25476321 96.14888672 -40.16503906 97.22607422 C-38.52316859 98.85205562 -36.89770399 100.4931746 -35.2734375 102.13671875 C-22.75838543 114.76647765 -22.75838543 114.76647765 -6.125 119.125 C-4.74973578 119.09322822 -3.37453198 119.05498128 -2 119 C-6.78385775 125.13315097 -12.01508896 129.50754448 -19 133 C-21.20259402 133.20233803 -23.41398826 133.31345149 -25.625 133.375 C-26.81351562 133.42398438 -28.00203125 133.47296875 -29.2265625 133.5234375 C-38.58105165 132.22581685 -44.85878818 124.54314843 -51.1875 118.10546875 C-52.13947509 117.1478861 -53.09212384 116.19097275 -54.04541016 115.23469543 C-56.53117016 112.73757794 -59.00778053 110.23158057 -61.48248291 107.72351074 C-64.01792839 105.15716634 -66.56207726 102.59948097 -69.10546875 100.04101562 C-74.07877954 95.03570163 -79.04245922 90.02093804 -84 85 C-79.61618886 79.75528394 -75.00291191 74.86477977 -70.15869141 70.04516602 C-69.01620941 68.90246498 -69.01620941 68.90246498 -67.85064697 67.73667908 C-65.35331728 65.24004143 -62.85247313 62.74695638 -60.3515625 60.25390625 C-58.61114002 58.51535046 -56.87093939 56.77657256 -55.13095093 55.0375824 C-50.56623679 50.47667363 -45.99852673 45.91877686 -41.43017578 41.36151123 C-36.76282722 36.70441946 -32.09833276 32.04447097 -27.43359375 27.38476562 C-18.29184591 18.25372017 -9.14702563 9.12575827 0 0 Z " fill="#FEB947" transform="translate(351,267)"/>
<path d="M0 0 C6.64219892 4.53736548 11.29609441 11.15238837 13.80859375 18.78125 C14.98776578 29.24297393 13.23249833 37.79537445 6.68359375 46.09375 C0.74277447 52.4460546 -7.5275233 55.87469468 -16.12890625 56.21875 C-24.50753649 56.13468348 -30.97144532 53.34612675 -37.35546875 47.953125 C-43.49416946 41.52708085 -46.34195383 34.23106502 -46.81640625 25.40625 C-46.50032524 16.47169352 -42.88418028 8.90846201 -36.37890625 2.78125 C-25.31991013 -5.78528298 -12.38573754 -6.88832462 0 0 Z " fill="#FC362A" transform="translate(272.19140625,19.21875)"/>
<path d="M0 0 C3.57003019 1.52278058 5.90413212 3.62861543 8.66088867 6.33862305 C9.57831345 7.23683273 10.49573822 8.13504242 11.44096375 9.06047058 C12.43385116 10.04366243 13.42617259 11.02742611 14.41796875 12.01171875 C15.44118622 13.02342357 16.46440503 14.03512704 17.48762512 15.04682922 C19.6290146 17.16723993 21.7657336 19.29224611 23.90014648 21.41967773 C26.63052975 24.13908704 29.37896664 26.83944448 32.1321516 29.53573895 C34.25182221 31.61809018 36.3578875 33.71380752 38.46050453 35.81336403 C39.46782719 36.81464957 40.48013133 37.81095019 41.49751854 38.80200768 C42.92157699 40.19180428 44.32490604 41.60274481 45.72729492 43.0144043 C46.53019455 43.81001266 47.33309418 44.60562103 48.1603241 45.42533875 C50.48002138 48.67179901 50.8733465 51.03940628 51 55 C49 58 49 58 46 60 C40.33211642 59.84405417 37.73012486 58.47384037 33.79907227 54.48022461 C33.32987869 54.0119072 32.86068512 53.54358978 32.37727356 53.06108093 C30.8423138 51.5219677 29.329665 49.96277292 27.81640625 48.40234375 C26.75155745 47.32629484 25.68536904 46.2515701 24.61790466 45.17811584 C21.82122144 42.35859864 19.04303039 39.52153041 16.26837158 36.68035889 C13.43014677 33.78059469 10.57471406 30.89788531 7.72070312 28.01367188 C2.13020046 22.3589525 -3.44087226 16.68556604 -9 11 C-7.49053489 7.81913482 -5.92058175 5.70130094 -3.375 3.25 C-2.74335938 2.63640625 -2.11171875 2.0228125 -1.4609375 1.390625 C-0.73777344 0.70226562 -0.73777344 0.70226562 0 0 Z " fill="#FC783B" transform="translate(446,437)"/>
<path d="M0 0 C3.18086518 1.50946511 5.29869906 3.07941825 7.75 5.625 C8.67039062 6.57246094 8.67039062 6.57246094 9.609375 7.5390625 C10.29773438 8.26222656 10.29773438 8.26222656 11 9 C9.47721942 12.57003019 7.37138457 14.90413212 4.66137695 17.66088867 C3.76316727 18.57831345 2.86495758 19.49573822 1.93952942 20.44096375 C0.95633757 21.43385116 -0.02742611 22.42617259 -1.01171875 23.41796875 C-2.02342357 24.44118622 -3.03512704 25.46440503 -4.04682922 26.48762512 C-6.16723993 28.6290146 -8.29224611 30.7657336 -10.41967773 32.90014648 C-13.13908704 35.63052975 -15.83944448 38.37896664 -18.53573895 41.1321516 C-20.61809018 43.25182221 -22.71380752 45.3578875 -24.81336403 47.46050453 C-25.81464957 48.46782719 -26.81095019 49.48013133 -27.80200768 50.49751854 C-29.19180428 51.92157699 -30.60274481 53.32490604 -32.0144043 54.72729492 C-32.81001266 55.53019455 -33.60562103 56.33309418 -34.42533875 57.1603241 C-37.67179901 59.48002138 -40.03940628 59.8733465 -44 60 C-47 58 -47 58 -49 55 C-48.84405417 49.33211642 -47.47384037 46.73012486 -43.48022461 42.79907227 C-43.0119072 42.32987869 -42.54358978 41.86068512 -42.06108093 41.37727356 C-40.5219677 39.8423138 -38.96277292 38.329665 -37.40234375 36.81640625 C-36.32629484 35.75155745 -35.2515701 34.68536904 -34.17811584 33.61790466 C-31.35859864 30.82122144 -28.52153041 28.04303039 -25.68035889 25.26837158 C-22.78059469 22.43014677 -19.89788531 19.57471406 -17.01367188 16.72070312 C-11.3589525 11.13020046 -5.68556604 5.55912774 0 0 Z " fill="#FC783B" transform="translate(64,437)"/>
<path d="M0 0 C4.31864357 3.57118603 7.43980387 6.54975483 11 11 C7.7 14.3 4.4 17.6 1 21 C-3.31864357 17.42881397 -6.43980387 14.45024517 -10 10 C-6.7 6.7 -3.4 3.4 0 0 Z " fill="#F9B646" transform="translate(404,394)"/>
<path d="M0 0 C4.31864357 3.57118603 7.43980387 6.54975483 11 11 C7.7 14.3 4.4 17.6 1 21 C-3.31864357 17.42881397 -6.43980387 14.45024517 -10 10 C-6.7 6.7 -3.4 3.4 0 0 Z " fill="#FAB646" transform="translate(107,394)"/>
<path d="M0 0 C4.31864357 3.57118603 7.43980387 6.54975483 11 11 C7.7 14.3 4.4 17.6 1 21 C-3.31864357 17.42881397 -6.43980387 14.45024517 -10 10 C-6.7 6.7 -3.4 3.4 0 0 Z " fill="#09B54D" transform="translate(383,373)"/>
<path d="M0 0 C4.31864357 3.57118603 7.43980387 6.54975483 11 11 C7.7 14.3 4.4 17.6 1 21 C-3.31864357 17.42881397 -6.43980387 14.45024517 -10 10 C-6.7 6.7 -3.4 3.4 0 0 Z " fill="#09B54D" transform="translate(128,373)"/>
<path d="M0 0 C3.21524305 1.40844718 5.32183868 3.10344786 7.75 5.625 C8.67039062 6.57246094 8.67039062 6.57246094 9.609375 7.5390625 C10.06828125 8.02117187 10.5271875 8.50328125 11 9 C9.59155282 12.21524305 7.89655214 14.32183868 5.375 16.75 C4.74335938 17.36359375 4.11171875 17.9771875 3.4609375 18.609375 C2.97882813 19.06828125 2.49671875 19.5271875 2 20 C-1.21524305 18.59155282 -3.32183868 16.89655214 -5.75 14.375 C-6.36359375 13.74335938 -6.9771875 13.11171875 -7.609375 12.4609375 C-8.06828125 11.97882813 -8.5271875 11.49671875 -9 11 C-7.59155282 7.78475695 -5.89655214 5.67816132 -3.375 3.25 C-2.74335938 2.63640625 -2.11171875 2.0228125 -1.4609375 1.390625 C-0.73777344 0.70226562 -0.73777344 0.70226562 0 0 Z " fill="#FA362A" transform="translate(425,416)"/>
<path d="M0 0 C3.21524305 1.40844718 5.32183868 3.10344786 7.75 5.625 C8.67039062 6.57246094 8.67039062 6.57246094 9.609375 7.5390625 C10.06828125 8.02117187 10.5271875 8.50328125 11 9 C9.59155282 12.21524305 7.89655214 14.32183868 5.375 16.75 C4.74335937 17.36359375 4.11171875 17.9771875 3.4609375 18.609375 C2.97882813 19.06828125 2.49671875 19.5271875 2 20 C-1.21524305 18.59155282 -3.32183868 16.89655214 -5.75 14.375 C-6.36359375 13.74335938 -6.9771875 13.11171875 -7.609375 12.4609375 C-8.06828125 11.97882813 -8.5271875 11.49671875 -9 11 C-7.59155282 7.78475695 -5.89655214 5.67816132 -3.375 3.25 C-2.74335937 2.63640625 -2.11171875 2.0228125 -1.4609375 1.390625 C-0.73777344 0.70226562 -0.73777344 0.70226562 0 0 Z " fill="#FA362A" transform="translate(85,416)"/>
</svg>
